#!OML:ASF H:\GeneralSubjects\Female5\Project 1\Capture day 1\Session 1\Female5.ASF
:FULLY-SPECIFIED
:DEGREES
411
root 11.9526 16.3998 7.25409 49.711 81.4853 29.5425
lowerback 12.1933 -0.919336 -1.49451
upperback -8.53937 -1.13891 1.94399
thorax -16.5012 -0.136879 3.34186
lowerneck -16.9633 -1.92002 -0.33453
upperneck 33.8339 -1.15238 -2.08009
head 14.4695 -0.531729 -0.913436
rclavicle -7.7526e-015 0
rhumerus -61.3711 26.5403 -92.3861
rradius 43.3901
rwrist 3.52225
rhand -19.5431 -10.6747
rfingers 7.12502
rthumb 6.78092 -40.5461
lclavicle -7.7526e-015 0
lhumerus -38.7894 -20.4823 89.7646
lradius 44.0958
lwrist -13.899
lhand -38.5784 27.4439
lfingers 7.12502
lthumb -11.5971 57.103
rfemur -42.76 26.8588 8.51671
rtibia 5.31154
rfoot -20.3476 -28.7887
rtoes -12.1739
lfemur -39.6544 -20.315 -20.0641
ltibia 12.2253
lfoot -24.8089 -11.0415
ltoes -23.7431
412
root 12.3708 15.8923 7.26567 46.2401 81.6691 27.0719
lowerback 12.5282 -1.05618 -0.870926
upperback -8.46749 -1.17213 2.16593
thorax -16.635 -0.203034 3.2618
lowerneck -16.3534 -1.88379 -0.861053
upperneck 32.9911 -0.951854 -2.1701
head 13.9633 -0.536553 -0.808568
rclavicle 8.84592e-015 -3.97569e-015
rhumerus -61.6307 25.281 -91.4202
rradius 41.2934
rwrist 3.24121
rhand -18.7999 -11.4869
rfingers 7.12502
rthumb 7.49828 -41.334
lclavicle 8.84592e-015 -3.97569e-015
lhumerus -40.1174 -18.907 90.1339
lradius 42.0668
lwrist -15.4626
lhand -37.3199 27.025
lfingers 7.12502
lthumb -10.3832 56.7486
rfemur -43.1163 22.333 12.9731
rtibia 9.21589
rfoot -14.4112 -25.1151
rtoes -12.3004
lfemur -41.8609 -17.6405 -21.1022
ltibia 17.411
lfoot -20.5451 -10.4559
ltoes -21.9125
413
root 12.7798 15.3889 7.27097 39.0249 81.899 21.5716
lowerback 13.4608 -1.12429 0.19562
upperback -8.19282 -1.01751 2.38303
thorax -16.9267 -0.235761 2.89104
lowerneck -15.5606 -1.84948 -1.18378
upperneck 32.0841 -0.805147 -2.34359
head 13.3989 -0.54191 -0.779509
rclavicle 1.64991e-014 6.36111e-015
rhumerus -61.0122 23.9702 -90.2528
rradius 38.494
rwrist 2.78066
rhand -18.3634 -12.7443
rfingers 7.12502
rthumb 7.91961 -42.5759
lclavicle 1.64991e-014 6.36111e-015
lhumerus -40.6039 -17.0684 90.016
lradius 39.2613
lwrist -17.3915
lhand -35.7556 26.7471
lfingers 7.12502
lthumb -8.87398 56.5405
rfemur -43.3743 18.1455 18.127
rtibia 15.0275
rfoot -9.42273 -20.8657
rtoes -12.8482
lfemur -43.9002 -15.224 -21.9471
ltibia 25.0484
lfoot -17.0102 -10.4283
ltoes -20.0184
414
root 13.1665 14.9374 7.27168 28.6689 81.8248 13.3201
lowerback 14.8238 -1.09325 1.42347
upperback -7.72512 -0.664598 2.60308
thorax -17.2645 -0.199713 2.37992
lowerneck -14.81 -1.8221 -1.32868
upperneck 31.2685 -0.722387 -2.52713
head 12.8941 -0.548983 -0.79648
rclavicle -2.3556e-014 3.97569e-015
rhumerus -59.6175 22.7572 -89.0491
rradius 35.3863
rwrist 2.08086
rhand -18.3318 -14.2821
rfingers 7.12502
rthumb 7.95008 -44.1126
lclavicle -2.3556e-014 3.97569e-015
lhumerus -40.4222 -15.112 89.512
lradius 36.0426
lwrist -19.5834
lhand -33.7832 26.5133
lfingers 7.12502
lthumb -6.97029 56.3785
rfemur -43.8242 15.3426 22.6154
rtibia 22.0014
rfoot -7.09832 -17.0519
rtoes -12.6714
lfemur -45.6257 -13.3733 -22.2452
ltibia 33.6021
lfoot -14.9803 -11.4335
ltoes -18.3886
415
root 13.5265 14.58 7.26831 18.6971 81.2038 5.40157
lowerback 16.2509 -0.940794 2.56021
upperback -7.18488 -0.147378 2.72607
thorax -17.5397 -0.0902101 1.74524
lowerneck -14.2083 -1.82976 -1.32865
upperneck 30.695 -0.738539 -2.64905
head 12.5286 -0.570783 -0.832954
rclavicle -8.84592e-015 -1.19271e-014
rhumerus -57.8633 21.7682 -88.1498
rradius 32.5436
rwrist 1.19895
rhand -18.5331 -15.7668
rfingers 7.12502
rthumb 7.75585 -45.6046
lclavicle -8.84592e-015 -1.19271e-014
lhumerus -39.9291 -13.5429 88.8941
lradius 32.9096
lwrist -21.7186
lhand -31.8575 26.2776
lfingers 7.12502
lthumb -5.11109 56.1959
rfemur -44.2638 13.6527 26.0666
rtibia 28.9673
rfoot -7.04326 -13.9664
rtoes -11.4659
lfemur -46.7375 -11.9086 -22.4052
ltibia 41.432
lfoot -14.1361 -13.2009
ltoes -17.0304
416
root 13.8584 14.3366 7.26511 12.0192 80.1214 0.358251
lowerback 17.3797 -0.68848 3.17999
upperback -6.71726 0.39634 2.84208
thorax -17.6885 0.0888704 1.36617
lowerneck -13.7611 -1.81701 -1.2053
upperneck 30.4781 -0.701784 -2.86101
head 12.3444 -0.56292 -0.921797
rclavicle -1.97791e-014 1.66979e-014
rhumerus -56.1806 21.5618 -87.8695
rradius 30.4391
rwrist 0.130964
rhand -18.742 -16.7203
rfingers 7.12502
rthumb 7.55422 -46.5654
lclavicle -1.97791e-014 1.66979e-014
lhumerus -39.547 -12.6049 88.5713
lradius 30.3952
lwrist -23.2808
lhand -30.0551 25.9335
lfingers 7.12502
lthumb -3.37065 55.8866
rfemur -44.5471 12.5945 28.4543
rtibia 34.9588
rfoot -8.31709 -11.4823
rtoes -10.157
lfemur -46.9717 -10.7012 -22.6611
ltibia 47.2587
lfoot -14.115 -15.4048
ltoes -15.7075
417
root 14.164 14.2024 7.26956 9.16021 78.8399 -1.36783
lowerback 18.0679 -0.342131 3.1332
upperback -6.41263 0.887802 2.92638
thorax -17.7489 0.317298 1.3319
lowerneck -13.3242 -1.78473 -1.0704
upperneck 30.5311 -0.620099 -3.05868
head 12.2733 -0.527346 -1.00326
rclavicle 8.54774e-015 -4.21423e-014
rhumerus -54.9366 22.2272 -88.3326
rradius 29.3834
rwrist -0.918915
rhand -19.1634 -17.1735
rfingers 7.12502
rthumb 7.14746 -47.0328
lclavicle 8.54774e-015 -4.21423e-014
lhumerus -39.5244 -12.6145 88.7716
lradius 28.7976
lwrist -23.9239
lhand -28.5758 25.5116
lfingers 7.12502
lthumb -1.94199 55.4825
rfemur -44.5274 12.0223 29.7382
rtibia 39.3806
rfoot -10.3222 -9.3667
rtoes -8.69792
lfemur -46.25 -9.7269 -23.1219
ltibia 50.6087
lfoot -14.3628 -17.7429
ltoes -14.8444
418
root 14.4652 14.157 7.28213 9.14276 77.6178 -0.653704
lowerback 18.1037 0.0302722 2.59128
upperback -6.25021 1.2471 2.94077
thorax -17.5753 0.537231 1.53378
lowerneck -12.9528 -1.72128 -0.955709
upperneck 30.8344 -0.465964 -3.2488
head 12.3193 -0.457426 -1.07189
rclavicle 2.5842e-015 -3.97569e-015
rhumerus -54.1392 23.424 -89.2179
rradius 29.3236
rwrist -1.65786
rhand -19.6593 -17.191
rfingers 7.12502
rthumb 6.66874 -47.066
lclavicle 2.5842e-015 -3.97569e-015
lhumerus -39.905 -13.4133 89.4011
lradius 28.1986
lwrist -23.7141
lhand -27.5355 25.1548
lfingers 7.12502
lthumb -0.9373 55.1325
rfemur -43.7125 11.3753 30.2644
rtibia 41.6563
rfoot -11.5946 -7.52538
rtoes -6.84505
lfemur -44.3203 -9.03627 -23.9359
ltibia 51.5025
lfoot -14.9008 -19.4685
ltoes -14.3957
419
root 14.7674 14.1777 7.30269 10.7804 76.6493 1.40629
lowerback 17.581 0.334402 1.84106
upperback -6.29001 1.43371 2.85747
thorax -17.3043 0.696414 1.8003
lowerneck -12.425 -1.63183 -0.807446
upperneck 31.1858 -0.245976 -3.51993
head 12.3537 -0.359368 -1.16706
rclavicle -3.52843e-015 -1.74931e-014
rhumerus -53.6935 24.4885 -90.0571
rradius 29.9685
rwrist -1.82612
rhand -20.1315 -17.1407
rfingers 7.12502
rthumb 6.21284 -47.0295
lclavicle -3.52843e-015 -1.74931e-014
lhumerus -40.5976 -14.3088 90.0348
lradius 28.3441
lwrist -23.1874
lhand -26.8225 24.7511
lfingers 7.12502
lthumb -0.248606 54.7307
rfemur -42.4665 10.6233 30.1997
rtibia 42.5757
rfoot -12.3905 -6.01804
rtoes -5.64466
lfemur -41.8954 -8.72219 -24.9958
ltibia 51.195
lfoot -15.0246 -20.8708
ltoes -14.002
420
root 15.0772 14.2428 7.33356 11.8689 75.9752 2.92386
lowerback 16.7429 0.517484 1.29525
upperback -6.34365 1.50895 2.78244
thorax -16.8468 0.784197 1.99789
lowerneck -11.9835 -1.52631 -0.672987
upperneck 31.5224 0.00769825 -3.80639
head 12.4029 -0.250751 -1.26287
rclavicle -3.43401e-014 -4.77083e-015
rhumerus -53.1699 24.9341 -90.3868
rradius 30.937
rwrist -1.52581
rhand -20.7211 -17.3298
rfingers 7.12502
rthumb 5.6436 -47.2346
lclavicle -3.43401e-014 -4.77083e-015
lhumerus -41.1408 -14.4886 90.1309
lradius 28.7968
lwrist -22.7822
lhand -26.4865 24.5471
lfingers 7.12502
lthumb 0.0758574 54.5268
rfemur -40.6527 10.0052 30.0895
rtibia 42.6214
rfoot -12.956 -4.92408
rtoes -5.17243
lfemur -39.1734 -8.68129 -25.8981
ltibia 50.3748
lfoot -15.1912 -22.028
ltoes -14.1496
421
root 15.3909 14.3586 7.37008 12.3375 75.5672 3.66733
lowerback 15.6586 0.592665 1.14928
upperback -6.50478 1.53835 2.68603
thorax -16.3545 0.808174 1.96182
lowerneck -11.6282 -1.43768 -0.55825
upperneck 31.8102 0.236461 -4.08538
head 12.4516 -0.15645 -1.35722
rclavicle 7.47927e-015 1.27222e-014
rhumerus -52.6613 24.5505 -90.2064
rradius 32.0865
rwrist -1.49034
rhand -21.3487 -17.6959
rfingers 7.12502
rthumb 5.03765 -47.616
lclavicle 7.47927e-015 1.27222e-014
lhumerus -41.5383 -13.7522 89.4636
lradius 29.3281
lwrist -22.3829
lhand -26.5329 24.6159
lfingers 7.12502
lthumb 0.0310333 54.5956
rfemur -38.469 9.59445 30.0256
rtibia 41.8375
rfoot -13.2702 -4.36332
rtoes -5.77387
lfemur -36.4614 -8.90964 -26.5368
ltibia 49.0898
lfoot -15.3818 -22.7452
ltoes -14.4497
422
root 15.6937 14.5251 7.40743 12.2964 75.3783 3.71634
lowerback 14.4481 0.583413 1.28364
upperback -6.73474 1.52689 2.63097
thorax -15.8589 0.789872 1.82921
lowerneck -11.4704 -1.37001 -0.526136
upperneck 32.0816 0.442801 -4.33439
head 12.5369 -0.0829064 -1.43159
rclavicle -8.19987e-016 1.59028e-015
rhumerus -52.181 23.6723 -89.6856
rradius 33.3778
rwrist -2.17849
rhand -21.8504 -18.1978
rfingers 7.12502
rthumb 4.55321 -48.1289
lclavicle -8.19987e-016 1.59028e-015
lhumerus -41.6953 -12.0591 88.0813
lradius 29.7982
lwrist -21.8034
lhand -26.508 24.9331
lfingers 7.12502
lthumb 0.0551146 54.9129
rfemur -36.0044 9.44833 30.0292
rtibia 40.1986
rfoot -13.2462 -4.39275
rtoes -7.06694
lfemur -33.7972 -9.29694 -26.8948
ltibia 47.2388
lfoot -15.6806 -22.8941
ltoes -14.9428
423
root 15.9756 14.7342 7.44067 11.9148 75.3655 3.30709
lowerback 13.272 0.510753 1.61831
upperback -7.01146 1.47746 2.60855
thorax -15.4367 0.738128 1.63235
lowerneck -11.4523 -1.32745 -0.557731
upperneck 32.3606 0.616991 -4.54869
head 12.6559 -0.0306372 -1.48817
rclavicle 1.21507e-014 -7.95139e-015
rhumerus -51.8956 22.7452 -89.1942
rradius 34.8493
rwrist -3.65406
rhand -22.1118 -18.8775
rfingers 7.12502
rthumb 4.30086 -48.8138
lclavicle 1.21507e-014 -7.95139e-015
lhumerus -41.6788 -9.76142 86.2467
lradius 30.15
lwrist -20.8232
lhand -26.4895 25.631
lfingers 7.12502
lthumb 0.0729864 55.6107
rfemur -33.2356 9.49362 30.0844
rtibia 37.6782
rfoot -12.7568 -4.94156
rtoes -8.66029
lfemur -31.121 -9.75192 -27.0487
ltibia 44.7742
lfoot -16.1262 -22.3593
ltoes -15.5598
424
root 16.2353 14.9725 7.46558 11.5056 75.4706 2.89213
lowerback 12.2728 0.401577 2.04234
upperback -7.29605 1.39526 2.58448
thorax -15.1342 0.662566 1.39153
lowerneck -11.5299 -1.31637 -0.663181
upperneck 32.681 0.747526 -4.69996
head 12.8132 -0.00126589 -1.51572
rclavicle -1.79652e-014 3.18055e-015
rhumerus -51.8558 22.0802 -88.9597
rradius 36.4572
rwrist -5.65569
rhand -21.9269 -19.5183
rfingers 7.12502
rthumb 4.47939 -49.4509
lclavicle -1.79652e-014 3.18055e-015
lhumerus -41.6008 -7.38206 84.3377
lradius 30.4351
lwrist -19.1849
lhand -26.5294 26.7012
lfingers 7.12502
lthumb 0.0344654 56.6809
rfemur -30.1915 9.54293 30.1005
rtibia 34.4584
rfoot -11.711 -5.82126
rtoes -10.4817
lfemur -28.2944 -10.1991 -27.187
ltibia 41.7463
lfoot -16.7245 -21.1414
ltoes -16.2477
